# xmcd
#
# Track frame offsets:
#	150
#	24009
#	53551
#	76612
#	95090
#	111437
#	131404
#	148550
#	169607
#
# Disc length: 2672 seconds
#
# Revision: 0
# Processed by: cddbd v1.5.2PL0 Copyright (c) Steve Scherf et al.
# Submitted via: audiograbber 1.83.01
#
DISCID=650a6e09
DTITLE=Orion - Orion
DYEAR=2012
DGENRE=Rock
TTITLE0=The Outside
TTITLE1=Crocker is Off His Rocker
TTITLE2=Strangle
TTITLE3=Domestic Demons
TTITLE4=Degeneration
TTITLE5=Plastic Head
TTITLE6=Cheap Salvation
TTITLE7=Trippin'
TTITLE8=Bob Saget in Space Part IX (The Sequel)
EXTD=
EXTT0=
EXTT1=
EXTT2=
EXTT3=
EXTT4=
EXTT5=
EXTT6=
EXTT7=
EXTT8=
PLAYORDER=
